<?xml version="1.0" standalone="no"?>
<!DOCTYPE svg PUBLIC "-//W3C//DTD SVG 20010904//EN"
 "http://www.w3.org/TR/2001/REC-SVG-20010904/DTD/svg10.dtd">
<svg version="1.0" xmlns="http://www.w3.org/2000/svg"
 width="260.000000pt" height="260.000000pt" viewBox="0 0 260.000000 260.000000"
 preserveAspectRatio="xMidYMid meet">
<metadata>
Created by potrace 1.14, written by Peter Selinger 2001-2017
</metadata>
<g transform="translate(0.000000,260.000000) scale(0.100000,-0.100000)"
fill="#000000" stroke="none">
<path d="M0 1300 l0 -1300 1300 0 1300 0 0 1300 0 1300 -1300 0 -1300 0 0
-1300z m2520 5 l0 -1215 -1215 0 -1215 0 0 1215 0 1215 1215 0 1215 0 0 -1215z"/>
<path d="M807 2125 l-137 -275 132 -265 133 -265 372 0 373 0 132 265 133 265
-138 275 -137 275 -363 0 -362 0 -138 -275z m872 -73 l103 -207 -101 -203
-101 -202 -273 0 -272 0 -102 203 -101 202 104 208 105 207 267 0 267 0 104
-208z"/>
<path d="M944 2047 l-102 -202 99 -198 99 -197 268 0 267 0 99 198 98 197
-101 203 -101 202 -263 0 -262 0 -101 -203z m715 -4 l99 -198 -97 -192 -96
-193 -257 0 -258 0 -97 195 -98 195 98 195 97 195 255 0 255 0 99 -197z"/>
<path d="M806 1032 l-138 -277 138 -278 139 -277 362 0 363 0 135 270 c74 148
135 277 135 285 0 8 -61 137 -135 285 l-135 270 -363 0 -362 0 -139 -278z
m873 -72 l104 -205 -104 -205 -104 -205 -267 -3 -268 -2 -100 201 c-56 111
-100 203 -98 205 2 2 49 -87 103 -196 l100 -200 262 0 263 0 101 202 101 203
-101 202 -101 203 -263 0 -262 0 -100 -200 c-54 -109 -101 -198 -103 -196 -2
2 42 94 98 205 l100 201 268 -2 267 -3 104 -205z m-20 -8 l99 -197 -99 -198
-99 -197 -253 0 -252 0 -99 198 -98 197 98 198 99 197 252 0 253 0 99 -198z"/>
</g>
</svg>
